<svg xmlns="http://www.w3.org/2000/svg" width="279" height="93" viewBox="0 0 279 93">
  <g id="logo" transform="translate(-118 -232)">
    <text id="QRCafe" transform="translate(228 296)" fill="#3f7e30" font-size="93" font-family="Gabriola"><tspan x="-109.041" y="0">QRCafe</tspan></text>
    <g id="Group_6" data-name="Group 6" transform="translate(44 52)">
      <g id="Rectangle_2" data-name="Rectangle 2" transform="translate(305 196)" fill="none" stroke="#3f7e30" stroke-width="2">
        <rect width="48" height="48" rx="5" stroke="none"/>
        <rect x="1" y="1" width="46" height="46" rx="4" fill="none"/>
      </g>
      <g id="Group_3" data-name="Group 3" transform="translate(3 -6)">
        <g id="qr-code-outline" transform="translate(303.143 203.143)">
          <rect id="Rectangle_3" data-name="Rectangle 3" width="7.143" height="7.143" rx="0.714" transform="translate(30 30)" fill="#3f7e30"/>
          <rect id="Rectangle_4" data-name="Rectangle 4" width="5.714" height="5.714" rx="0.714" transform="translate(24.286 24.286)" fill="#3f7e30"/>
          <rect id="Rectangle_5" data-name="Rectangle 5" width="5.714" height="5.714" rx="0.714" transform="translate(37.143 37.143)" fill="#3f7e30"/>
          <rect id="Rectangle_6" data-name="Rectangle 6" width="4.286" height="4.286" rx="0.714" transform="translate(38.571 24.286)" fill="#3f7e30"/>
          <rect id="Rectangle_7" data-name="Rectangle 7" width="4.286" height="4.286" rx="0.714" transform="translate(24.286 38.571)" fill="#3f7e30"/>
          <rect id="Rectangle_8" data-name="Rectangle 8" width="7.143" height="7.143" rx="0.714" transform="translate(30 8.571)" fill="#3f7e30"/>
          <rect id="Rectangle_9" data-name="Rectangle 9" width="15.714" height="15.714" rx="1.429" transform="translate(25.714 4.286)" fill="none" stroke="#3f7e30" stroke-linecap="round" stroke-linejoin="round" stroke-width="2.857"/>
          <rect id="Rectangle_10" data-name="Rectangle 10" width="7.143" height="7.143" rx="0.714" transform="translate(8.571 8.571)" fill="#3f7e30"/>
          <rect id="Rectangle_11" data-name="Rectangle 11" width="15.714" height="15.714" rx="1.429" transform="translate(4.286 4.286)" fill="none" stroke="#3f7e30" stroke-linecap="round" stroke-linejoin="round" stroke-width="2.857"/>
          <rect id="Rectangle_12" data-name="Rectangle 12" width="7.143" height="7.143" rx="0.714" transform="translate(8.571 30)" fill="#3f7e30"/>
          <rect id="Rectangle_13" data-name="Rectangle 13" width="15.714" height="15.714" rx="1.429" transform="translate(4.286 25.714)" fill="none" stroke="#3f7e30" stroke-linecap="round" stroke-linejoin="round" stroke-width="2.857"/>
        </g>
      </g>
    </g>
  </g>
</svg>
